#!OML:ASF Y:\EmotionMaleHayes\Project 1\Capture day 1\Session 1\Male1.ASF
:FULLY-SPECIFIED
:DEGREES
1303
root 33.6562 17.2378 15.9805 -165.35 98.6741 -161.027
lowerback 5.51347 2.67918 -10.0378
upperback 1.82735 3.12438 -4.4904
thorax -1.45617 1.63529 0.725333
lowerneck -21.4089 5.02376 5.94136
upperneck 34.944 8.47893 -5.51549
head 16.7683 3.80756 -1.62439
rclavicle 1.5207e-014 1.27222e-014
rhumerus -44.6565 -0.514928 -81.1386
rradius 25.873
rwrist 10.4469
rhand -9.8171 -38.1816
rfingers 7.12502
rthumb 16.1598 -67.528
lclavicle 1.5207e-014 1.27222e-014
lhumerus -31.0508 -12.0881 71.5759
lradius 48.5896
lwrist -1.43134
lhand -23.9908 -22.9098
lfingers 7.12502
lthumb 2.48626 7.05545
rfemur 1.2223 -5.84529 11.9759
rtibia 34.7195
rfoot -20.5949 -6.58568
rtoes -0.298399
lfemur 8.22154 0.911095 -24.4274
ltibia 9.98975
lfoot -17.4448 14.0283
ltoes 9.3402
1304
root 33.7623 17.2272 16.0009 -164.278 98.2237 -159.878
lowerback 5.62471 2.56015 -10.2737
upperback 1.80783 2.93366 -4.33394
thorax -1.54128 1.54223 1.0254
lowerneck -21.5029 5.02424 5.80371
upperneck 35.0204 8.49911 -5.41225
head 16.817 3.81021 -1.54887
rclavicle 8.94531e-015 -4.29375e-014
rhumerus -45.7484 -0.675679 -80.322
rradius 26.5029
rwrist 8.41219
rhand -10.973 -38.5036
rfingers 7.12502
rthumb 15.0465 -67.9368
lclavicle 8.94531e-015 -4.29375e-014
lhumerus -30.0204 -12.7655 71.0182
lradius 49.2918
lwrist -1.7601
lhand -24.0741 -22.5818
lfingers 7.12502
lthumb 2.40576 7.38435
rfemur 0.0693808 -5.54407 12.208
rtibia 34.2687
rfoot -20.5979 -7.36338
rtoes -2.48883
lfemur 8.93606 0.611356 -24.4049
ltibia 9.4546
lfoot -17.4292 13.9331
ltoes 8.70065
1305
root 33.877 17.2176 16.0168 -162.396 97.5517 -157.934
lowerback 5.84142 2.42672 -10.3375
upperback 1.71472 2.71124 -4.25147
thorax -1.74623 1.44087 1.15151
lowerneck -21.2997 5.14078 5.99871
upperneck 34.9825 8.65569 -5.50318
head 16.7795 3.89694 -1.59209
rclavicle -2.28602e-015 9.54166e-015
rhumerus -47.0994 -0.871517 -79.6222
rradius 27.162
rwrist 6.08262
rhand -12.5531 -38.9083
rfingers 7.12502
rthumb 13.5239 -68.4492
lclavicle -2.28602e-015 9.54166e-015
lhumerus -28.9798 -13.7069 70.5146
lradius 49.9519
lwrist -1.81537
lhand -24.2201 -22.4645
lfingers 7.12502
lthumb 2.26483 7.5032
rfemur -0.831628 -5.32051 12.269
rtibia 33.7362
rfoot -20.8211 -7.18522
rtoes -0.517631
lfemur 9.69579 0.32774 -24.4629
ltibia 8.8365
lfoot -17.2352 13.6276
ltoes 8.10012
1306
root 33.992 17.2067 16.0242 -156.916 97.0241 -152.338
lowerback 5.67141 2.22988 -10.8426
upperback 1.95252 2.47769 -4.18997
thorax -1.399 1.3078 1.52411
lowerneck -22.4445 5.0621 5.20106
upperneck 35.7165 8.54944 -4.68379
head 17.3295 3.8281 -1.08938
rclavicle -4.74101e-014 4.29375e-014
rhumerus -47.7673 -0.758872 -78.9639
rradius 27.3496
rwrist 4.34578
rhand -13.3147 -39.0311
rfingers 7.12502
rthumb 12.7899 -68.6193
lclavicle -4.74101e-014 4.29375e-014
lhumerus -27.3917 -14.2092 70.0238
lradius 50.3983
lwrist -1.75865
lhand -24.2529 -22.3395
lfingers 7.12502
lthumb 2.23316 7.62855
rfemur -1.775 -5.67239 11.6681
rtibia 33.3888
rfoot -20.5347 -7.27962
rtoes -5.33797
lfemur 10.4831 0.130141 -25.0717
ltibia 8.24232
lfoot -17.2313 13.1489
ltoes 8.56687
1307
root 34.0856 17.19 16.0493 -160.692 96.1245 -155.887
lowerback 6.23742 2.08611 -10.3439
upperback 1.94716 2.22175 -3.77445
thorax -1.69614 1.18489 1.6839
lowerneck -21.8034 5.07644 6.05872
upperneck 35.3098 8.70089 -5.87162
head 17.1093 3.85888 -1.74836
rclavicle 5.36719e-015 -4.45278e-014
rhumerus -48.7367 -0.638698 -78.2574
rradius 27.6165
rwrist 2.96104
rhand -13.016 -39.2216
rfingers 7.12502
rthumb 13.0778 -68.7916
lclavicle 5.36719e-015 -4.45278e-014
lhumerus -26.2031 -14.698 69.5682
lradius 50.9782
lwrist -1.74173
lhand -24.1485 -22.0752
lfingers 7.12502
lthumb 2.33398 7.89176
rfemur -2.69726 -5.18502 12.7696
rtibia 32.9667
rfoot -20.7477 -7.34858
rtoes -4.2815
lfemur 11.3233 -0.111667 -23.9845
ltibia 7.8011
lfoot -17.5112 12.4575
ltoes 10.9321
1308
root 34.2108 17.1606 16.0565 -146.526 96.3365 -141.454
lowerback 6.20303 2.01892 -11.8468
upperback 2.09094 2.08251 -4.02234
thorax -1.54238 1.11659 2.26132
lowerneck -21.5979 5.07666 6.46656
upperneck 35.2496 8.71015 -6.27351
head 17.083 3.87003 -2.00024
rclavicle -1.16289e-014 -3.81667e-014
rhumerus -49.539 -0.659173 -77.5621
rradius 27.9792
rwrist 1.4387
rhand -12.8213 -39.3897
rfingers 7.12502
rthumb 13.2654 -68.9476
lclavicle -1.16289e-014 -3.81667e-014
lhumerus -24.8572 -15.1518 69.0296
lradius 51.5896
lwrist -1.7041
lhand -24.0704 -21.756
lfingers 7.12502
lthumb 2.40936 8.21013
rfemur -3.44634 -5.01079 10.7821
rtibia 32.233
rfoot -20.3665 -6.41491
rtoes -2.24306
lfemur 12.248 -0.172691 -25.8293
ltibia 7.23711
lfoot -17.7088 11.8891
ltoes 13.0135
